<svg xmlns="http://www.w3.org/2000/svg" width="1200" height="630" viewBox="0 0 1200 630" role="img" aria-labelledby="title desc">
  <title id="title">Pasha Prabasakti portfolio preview</title>
  <desc id="desc">A social preview image for Pasha Prabasakti, Web Developer.</desc>
  <defs>
    <linearGradient id="bg" x1="0" x2="1" y1="0" y2="1">
      <stop offset="0" stop-color="#14161f" />
      <stop offset="0.55" stop-color="#1f2433" />
      <stop offset="1" stop-color="#2a1b4d" />
    </linearGradient>
    <linearGradient id="accent" x1="0" x2="1" y1="0" y2="0">
      <stop offset="0" stop-color="#47bfff" />
      <stop offset="1" stop-color="#9f5cff" />
    </linearGradient>
  </defs>
  <rect width="1200" height="630" fill="url(#bg)" />
  <path d="M825 0h375v630H690c160-120 205-270 135-630Z" fill="#7c3aed" opacity=".16" />
  <path d="M0 493c123-52 243-66 360-42 122 26 224 15 306-32 83-47 145-56 186-28 40 27 56 79 48 156H0Z" fill="#47bfff" opacity=".12" />
  <rect x="82" y="82" width="1036" height="466" rx="32" fill="#ffffff" opacity=".05" stroke="#ffffff" stroke-opacity=".16" />
  <text x="118" y="166" fill="#a7f3ff" font-family="Inter, Arial, sans-serif" font-size="28" font-weight="700" letter-spacing="4">WEB DEVELOPER</text>
  <text x="116" y="285" fill="#ffffff" font-family="Inter, Arial, sans-serif" font-size="76" font-weight="800">Pasha Prabasakti</text>
  <text x="120" y="354" fill="#d7dbe8" font-family="Inter, Arial, sans-serif" font-size="34" font-weight="500">Backend systems, REST API, PostgreSQL, and maintainable web apps.</text>
  <g font-family="Inter, Arial, sans-serif" font-size="26" font-weight="700">
    <rect x="120" y="414" width="106" height="52" rx="26" fill="url(#accent)" />
    <text x="152" y="449" fill="#10131d">Go</text>
    <rect x="246" y="414" width="158" height="52" rx="26" fill="#ffffff" opacity=".12" />
    <text x="278" y="449" fill="#ffffff">REST API</text>
    <rect x="424" y="414" width="180" height="52" rx="26" fill="#ffffff" opacity=".12" />
    <text x="456" y="449" fill="#ffffff">PostgreSQL</text>
    <rect x="624" y="414" width="128" height="52" rx="26" fill="#ffffff" opacity=".12" />
    <text x="656" y="449" fill="#ffffff">React</text>
  </g>
  <text x="120" y="515" fill="#b8bed0" font-family="Inter, Arial, sans-serif" font-size="24">www.pasha.euphyfve.com</text>
</svg>
